HIERARCHY
ROOT Hips
{
 OFFSET 0.000000 0.000000 0.000000
 CHANNELS 6 Xposition Yposition Zposition Yrotation Xrotation Zrotation
 JOINT Chest
 {
  OFFSET 0.000000 11.395451 -0.039534
  CHANNELS 3 Yrotation Xrotation Zrotation
  JOINT Chest2
  {
   OFFSET 0.000000 9.398669 0.071813
   CHANNELS 3 Yrotation Xrotation Zrotation
   JOINT Chest3
   {
    OFFSET 0.000000 8.489801 0.000000
    CHANNELS 3 Yrotation Xrotation Zrotation
    JOINT Chest4
    {
     OFFSET 0.000000 8.489801 0.000000
     CHANNELS 3 Yrotation Xrotation Zrotation
     JOINT Neck
     {
      OFFSET 0.000000 12.404889 0.000000
      CHANNELS 3 Yrotation Xrotation Zrotation
      JOINT Head
      {
       OFFSET 0.000000 8.903270 0.092239
       CHANNELS 3 Yrotation Xrotation Zrotation
       End Site
       {
        OFFSET 0.000000 17.592497 0.007158
       }
      }
     }
     JOINT RightCollar
     {
      OFFSET -3.196775 6.966722 0.000000
      CHANNELS 3 Yrotation Xrotation Zrotation
      JOINT RightShoulder
      {
       OFFSET -15.955896 0.000000 0.000000
       CHANNELS 3 Yrotation Xrotation Zrotation
       JOINT RightElbow
       {
        OFFSET -24.792472 0.000000 0.000000
        CHANNELS 3 Yrotation Xrotation Zrotation
        JOINT RightWrist
        {
         OFFSET -20.900115 0.000000 0.025002
         CHANNELS 3 Yrotation Xrotation Zrotation
         End Site
         {
          OFFSET -16.056692 0.000000 0.000000
         }
        }
       }
      }
     }
     JOINT LeftCollar
     {
      OFFSET 3.196775 6.966722 0.000000
      CHANNELS 3 Yrotation Xrotation Zrotation
      JOINT LeftShoulder
      {
       OFFSET 15.955896 0.000000 0.000000
       CHANNELS 3 Yrotation Xrotation Zrotation
       JOINT LeftElbow
       {
        OFFSET 24.792472 0.000000 0.000000
        CHANNELS 3 Yrotation Xrotation Zrotation
        JOINT LeftWrist
        {
         OFFSET 20.900115 0.000000 0.025002
         CHANNELS 3 Yrotation Xrotation Zrotation
         End Site
         {
          OFFSET 16.056692 0.000000 0.000000
         }
        }
       }
      }
     }
    }
   }
  }
 }
 JOINT RightHip
 {
  OFFSET -9.568995 0.193718 0.019767
  CHANNELS 3 Yrotation Xrotation Zrotation
  JOINT RightKnee
  {
   OFFSET 0.000000 -56.649296 0.015402
   CHANNELS 3 Yrotation Xrotation Zrotation
   JOINT RightAnkle
   {
    OFFSET 0.000000 -41.365147 0.021264
    CHANNELS 3 Yrotation Xrotation Zrotation
    JOINT RightToe
    {
     OFFSET 0.000000 -7.465940 17.672538
     CHANNELS 3 Yrotation Xrotation Zrotation
     End Site
     {
      OFFSET 0.000000 -1.736315 7.837145
     }
    }
   }
  }
 }
 JOINT LeftHip
 {
  OFFSET 9.568995 0.193718 0.019767
  CHANNELS 3 Yrotation Xrotation Zrotation
  JOINT LeftKnee
  {
   OFFSET 0.000000 -56.649296 0.015402
   CHANNELS 3 Yrotation Xrotation Zrotation
   JOINT LeftAnkle
   {
    OFFSET 0.000000 -41.365147 0.021264
    CHANNELS 3 Yrotation Xrotation Zrotation
    JOINT LeftToe
    {
     OFFSET 0.000000 -7.465940 17.672538
     CHANNELS 3 Yrotation Xrotation Zrotation
     End Site
     {
      OFFSET 0.000000 -1.736315 7.837145
     }
    }
   }
  }
 }
}
MOTION
Frames: 8
Frame Time: 0.016667
109.573372 106.632931 203.685078 6.305272 -7.844625 -0.602476 0.629750 5.314468 1.081588 0.267180 2.363445 0.472954 0.267180 2.363445 0.472954 0.198527 1.772792 0.353632 0.989458 14.450695 -1.338226 2.378943 -9.309571 -2.899413 1.967054 10.344629 9.470998 6.137168 -14.402007 73.736213 -1.944821 -4.025395 -2.252774 -2.637260 -2.805966 2.206659 1.390395 7.851477 -6.970410 -4.720180 -13.402392 -73.010859 -9.852622 -6.127647 -4.510165 4.220807 -0.993594 -2.173345 0.977415 11.359750 -1.384713 -2.008908 2.299970 -0.151469 -8.079271 -5.471877 3.231599 0.000000 -0.000000 0.000000 10.873774 10.983363 3.082991 1.129656 5.133473 0.242294 6.222327 -8.453772 -1.439206 0.000000 0.000000 0.000000
109.579944 106.621238 203.553590 6.271968 -7.770501 -0.534413 0.690135 5.277075 1.084688 0.294045 2.346971 0.473702 0.294046 2.346972 0.473703 0.218684 1.760460 0.354098 0.982787 14.477843 -1.294914 2.348754 -9.260822 -2.814567 1.911786 10.275481 9.394716 6.301916 -14.379167 73.766871 -1.592750 -3.875483 -2.131015 -2.556898 -2.846032 2.173002 1.380662 7.833313 -6.989768 -4.615537 -13.331064 -73.190106 -8.973905 -6.216265 -4.188305 4.189269 -1.006476 -2.101319 1.130210 11.233155 -1.424697 -2.257237 2.266330 -0.160068 -7.955567 -5.432232 3.176695 0.000000 0.000000 0.000000 10.868213 10.885732 3.000447 1.222393 5.075145 0.231748 6.125924 -8.402245 -1.419426 0.000000 0.000000 0.000000
109.586516 106.609546 203.422102 6.238759 -7.696338 -0.466405 0.750555 5.239748 1.087691 0.320928 2.330527 0.474415 0.320928 2.330528 0.474416 0.238854 1.748147 0.354539 0.976116 14.504896 -1.251547 2.318584 -9.212222 -2.729654 1.856677 10.206370 9.318373 6.466587 -14.356569 73.797821 -1.239991 -3.726238 -2.009507 -2.476559 -2.885518 2.138456 1.370951 7.815177 -7.009160 -4.511114 -13.259064 -73.368984 -8.097096 -6.311502 -3.864816 4.157319 -1.020678 -2.029713 1.283096 11.106825 -1.465144 -2.505559 2.232662 -0.168842 -7.831841 -5.392561 3.121984 0.000000 -0.000000 0.000000 10.862848 10.788060 2.917985 1.315146 5.016828 0.221190 6.029559 -8.350664 -1.399824 0.000000 0.000000 0.000000
109.589373 106.599637 203.297408 6.206092 -7.627961 -0.406954 0.800516 5.201058 1.090846 0.343170 2.313453 0.475326 0.343170 2.313453 0.475326 0.255542 1.735359 0.355146 0.971821 14.543853 -1.208744 2.292765 -9.141391 -2.646399 1.800978 10.142990 9.245936 6.643759 -14.356518 73.820347 -0.844629 -3.606419 -1.877225 -2.393589 -2.928039 2.096208 1.357714 7.790563 -7.027120 -4.412664 -13.174738 -73.560392 -7.180408 -6.361722 -3.498540 4.170949 -0.995145 -1.978509 1.423328 10.993225 -1.499904 -2.717226 2.188923 -0.174779 -7.731671 -5.355570 3.063710 0.000000 0.000000 0.000000 10.816688 10.697892 2.835692 1.417533 4.959645 0.209525 5.964821 -8.300580 -1.382108 0.000000 0.000000 0.000000
109.586722 106.592597 203.183120 6.169755 -7.566842 -0.359909 0.836856 5.157606 1.094161 0.359376 2.294232 0.476477 0.359375 2.294232 0.476477 0.267706 1.720955 0.355960 0.971986 14.607573 -1.165087 2.274304 -9.024439 -2.562577 1.743385 10.084384 9.179725 6.833971 -14.384385 73.831721 -0.382715 -3.527866 -1.730637 -2.309200 -2.970528 2.042514 1.340357 7.751442 -7.042165 -4.322153 -13.066860 -73.774773 -6.186415 -6.351441 -3.057906 4.249884 -0.906284 -1.955867 1.547543 10.898351 -1.525802 -2.868804 2.125952 -0.176340 -7.671172 -5.321361 2.997755 0.000000 0.000000 0.000000 10.697015 10.621361 2.750578 1.543177 4.897309 0.194677 5.954131 -8.249374 -1.367654 0.000000 0.000000 0.000000
109.580356 106.587341 203.075627 6.133907 -7.511525 -0.321405 0.862728 5.112740 1.097707 0.370936 2.274359 0.477856 0.370936 2.274359 0.477856 0.276387 1.706061 0.356964 0.974509 14.683263 -1.121997 2.260223 -8.885146 -2.480442 1.685182 10.031413 9.117480 7.036683 -14.434674 73.834564 0.121695 -3.479814 -1.573782 -2.222083 -3.015486 1.981092 1.319500 7.705804 -7.055767 -4.237651 -12.946967 -74.001700 -5.150978 -6.301765 -2.573331 4.373778 -0.775531 -1.950150 1.659031 10.816038 -1.545768 -2.983738 2.052937 -0.174907 -7.634183 -5.289848 2.928103 0.000000 0.000000 0.000000 10.536502 10.551977 2.665936 1.678470 4.836065 0.178855 5.975046 -8.199724 -1.354898 0.000000 0.000000 0.000000
109.571936 106.582405 202.970880 6.111522 -7.463459 -0.288340 0.877103 5.075137 1.101848 0.377368 2.257689 0.479614 0.377368 2.257689 0.479614 0.281217 1.693565 0.358270 0.975478 14.744476 -1.084374 2.245839 -8.772596 -2.408456 1.629450 9.992481 9.056335 7.262915 -14.513331 73.827933 0.638605 -3.457306 -1.407416 -2.125680 -3.074743 1.915971 1.293402 7.671149 -7.070880 -4.159093 -12.837643 -74.222854 -4.141631 -6.215184 -2.096055 4.528708 -0.629056 -1.951254 1.755014 10.740448 -1.562728 -3.095709 1.987365 -0.171808 -7.595881 -5.263443 2.863157 0.000000 -0.000000 0.000000 10.392245 10.478452 2.591245 1.792172 4.795849 0.167378 5.991845 -8.161122 -1.341142 0.000000 0.000000 0.000000
109.563743 106.576921 202.867952 6.108680 -7.423722 -0.258829 0.875803 5.046477 1.106644 0.376812 2.244957 0.481818 0.376812 2.244957 0.481818 0.280802 1.684017 0.359932 0.974041 14.783685 -1.054239 2.230500 -8.700730 -2.350270 1.575818 9.973450 8.994743 7.517723 -14.628640 73.807057 1.167874 -3.463585 -1.224612 -2.013026 -3.159916 1.846822 1.260611 7.657973 -7.091136 -4.082875 -12.749098 -74.434745 -3.160052 -6.083758 -1.633969 4.720026 -0.471007 -1.954461 1.840136 10.673229 -1.579993 -3.226920 1.930441 -0.163762 -7.543504 -5.242893 2.805394 -0.000000 -0.000000 0.000000 10.281861 10.396964 2.526908 1.869715 4.786515 0.163659 5.996199 -8.139786 -1.324988 0.000000 0.000000 0.000000
